<?xml version="1.0" standalone="no"?>
<!DOCTYPE svg PUBLIC "-//W3C//DTD SVG 20010904//EN"
 "http://www.w3.org/TR/2001/REC-SVG-20010904/DTD/svg10.dtd">
<svg version="1.0" xmlns="http://www.w3.org/2000/svg"
 width="256.000000pt" height="256.000000pt" viewBox="0 0 256.000000 256.000000"
 preserveAspectRatio="xMidYMid meet">
<metadata>
Created by potrace 1.11, written by Peter Selinger 2001-2013
</metadata>
<g transform="translate(0.000000,256.000000) scale(0.100000,-0.100000)"
fill="#000000" stroke="none">
<path d="M1190 2552 c-89 -15 -213 -103 -268 -190 -58 -91 -65 -127 -68 -357
-3 -238 5 -306 48 -386 32 -60 97 -133 139 -154 l25 -14 1 362 c0 316 2 367
17 402 79 187 364 164 403 -34 3 -14 5 -184 6 -378 l0 -352 31 21 c45 31 102
96 130 148 48 89 53 128 51 370 -1 200 -4 231 -22 282 -64 176 -221 287 -403
285 -36 0 -76 -3 -90 -5z"/>
<path d="M1213 1792 c-12 -9 -26 -28 -31 -42 -7 -20 -10 -883 -4 -938 1 -7 14
-24 28 -37 38 -35 110 -35 148 0 14 13 27 32 28 42 7 79 4 904 -3 930 -6 17
-21 38 -34 47 -32 21 -104 20 -132 -2z"/>
<path d="M983 1042 c-67 -66 -107 -142 -122 -227 -5 -33 -9 -152 -7 -265 2
-164 7 -215 20 -255 86 -245 356 -362 581 -251 108 54 186 141 228 254 18 50
21 82 22 270 2 240 -4 294 -46 372 -41 77 -121 160 -153 160 -10 0 -13 -74
-13 -352 0 -332 -1 -356 -20 -398 -11 -25 -34 -59 -52 -76 -108 -105 -285 -62
-342 82 -8 20 -11 143 -12 387 0 291 -3 357 -14 357 -7 0 -39 -26 -70 -58z"/>
</g>
</svg>
