<?xml version="1.0" standalone="no"?>
<!DOCTYPE svg PUBLIC "-//W3C//DTD SVG 20010904//EN"
 "http://www.w3.org/TR/2001/REC-SVG-20010904/DTD/svg10.dtd">
<svg version="1.0" xmlns="http://www.w3.org/2000/svg"
 width="512.000000pt" height="512.000000pt" viewBox="0 0 512.000000 512.000000"
 preserveAspectRatio="xMidYMid meet">
<metadata>
Created by potrace 1.11, written by Peter Selinger 2001-2013
</metadata>
<g transform="translate(0.000000,512.000000) scale(0.100000,-0.100000)"
fill="#000000" stroke="none">
<path d="M2457 4564 c-1 -1 -38 -5 -83 -8 -68 -5 -148 -18 -249 -40 -610 -131
-1156 -585 -1407 -1173 l-27 -61 -138 -4 c-152 -4 -175 -11 -236 -72 -19 -19
-44 -54 -56 -79 -22 -44 -22 -48 -19 -578 3 -594 -1 -560 73 -634 63 -63 85
-69 243 -73 85 -2 142 -8 142 -14 0 -5 27 -65 59 -131 155 -319 384 -585 681
-789 259 -177 590 -301 896 -335 88 -10 358 -10 447 -1 588 64 1143 414 1472
928 51 79 134 240 156 303 l13 37 127 0 c147 0 190 13 253 76 79 79 77 60 74
658 -3 593 1 557 -76 632 -64 63 -83 68 -236 72 l-138 4 -16 41 c-9 23 -39 88
-68 143 -305 602 -908 1017 -1584 1090 -59 6 -298 13 -303 8z m198 -179 c256
-68 477 -415 606 -952 16 -67 29 -129 29 -137 0 -14 -77 -16 -734 -16 l-734 0
14 68 c58 281 152 537 264 717 81 131 146 202 239 262 106 69 204 87 316 58z
m-549 -57 c-118 -144 -181 -247 -256 -415 -74 -167 -129 -344 -175 -555 l-16
-78 -395 0 -395 0 6 23 c10 32 112 224 148 277 253 373 586 620 1012 751 50
15 92 28 94 28 2 1 -8 -14 -23 -31z m1109 -40 c312 -125 548 -292 758 -538 89
-105 277 -416 277 -460 0 -12 -786 -14 -793 -2 -3 4 -8 25 -11 47 -4 22 -11
58 -17 80 -6 22 -12 47 -14 55 -17 90 -113 381 -144 437 -5 10 -29 56 -51 103
-48 98 -130 225 -189 292 -23 25 -41 48 -41 51 0 7 166 -41 225 -65z m1487
-1186 c10 -10 13 -121 13 -542 0 -517 0 -529 -20 -544 -18 -14 -264 -15 -2136
-16 -1811 0 -2118 2 -2135 14 -18 14 -19 33 -22 518 -2 277 0 518 3 536 4 21
14 36 28 42 13 5 924 8 2139 7 1722 -2 2119 -4 2130 -15z m-3039 -1269 c3 -5
8 -25 11 -47 14 -90 99 -393 126 -451 5 -11 21 -49 36 -85 62 -154 161 -321
252 -428 45 -53 45 -53 16 -46 -160 37 -413 148 -554 243 -225 150 -415 345
-550 566 -40 66 -130 238 -130 250 0 8 788 6 793 -2z m1627 -10 c0 -9 -7 -46
-15 -82 -110 -470 -274 -789 -481 -937 -270 -193 -560 -43 -769 399 -57 119
-103 245 -137 367 -24 89 -58 239 -58 257 0 11 138 13 730 13 678 0 730 -1
730 -17z m960 9 c0 -16 -111 -225 -152 -286 -120 -178 -305 -371 -469 -489
-155 -111 -440 -242 -613 -281 -27 -7 -27 -5 21 51 178 209 343 596 407 953 5
25 10 48 13 53 6 10 793 9 793 -1z"/>
<path d="M994 2807 c-19 -16 -27 -33 -26 -53 1 -24 84 -226 185 -445 36 -77
59 -92 117 -76 24 6 86 100 153 230 17 33 13 38 97 -110 50 -89 69 -114 93
-122 58 -21 87 8 146 149 13 30 34 78 46 105 117 256 124 284 81 322 -64 55
-107 20 -177 -142 -28 -66 -58 -133 -66 -149 l-15 -28 -32 53 c-17 30 -45 80
-61 112 -45 86 -108 107 -156 51 -9 -11 -35 -55 -59 -99 -24 -44 -47 -81 -52
-83 -4 -2 -8 -10 -8 -18 0 -36 -20 -2 -80 137 -66 154 -91 189 -136 189 -12 0
-35 -11 -50 -23z"/>
<path d="M2114 2807 c-19 -16 -27 -33 -26 -53 1 -43 198 -485 227 -511 23 -21
40 -22 83 -9 18 6 78 101 147 234 15 28 14 29 91 -110 45 -82 66 -111 91 -123
33 -16 68 -10 90 16 26 32 215 476 215 504 -1 35 -41 75 -75 75 -52 0 -76 -37
-168 -257 -19 -46 -36 -83 -39 -83 -3 0 -33 49 -65 110 -65 119 -99 149 -147
131 -32 -12 -48 -33 -98 -126 -24 -44 -47 -81 -52 -83 -4 -2 -8 -10 -8 -18 0
-33 -17 -8 -54 79 -22 50 -52 120 -67 154 -42 93 -91 116 -145 70z"/>
<path d="M3234 2807 c-19 -16 -27 -33 -26 -53 1 -31 194 -478 218 -505 9 -9
26 -19 39 -21 47 -9 78 18 135 120 30 53 58 105 62 115 4 9 11 17 16 17 4 0
37 -52 73 -115 50 -89 71 -118 97 -130 43 -21 79 -4 107 50 59 115 199 451
197 474 -2 31 -44 71 -75 71 -37 0 -65 -28 -97 -96 -16 -36 -30 -67 -30 -69 0
-2 -18 -43 -40 -91 l-41 -88 -18 30 c-9 16 -34 61 -55 99 -49 90 -76 118 -115
118 -43 0 -63 -22 -128 -139 -32 -57 -61 -100 -65 -96 -4 4 -35 70 -68 147
-34 77 -73 150 -86 163 -32 28 -66 28 -100 -1z"/>
</g>
</svg>
