<?xml version="1.0" standalone="no"?>
<!DOCTYPE svg PUBLIC "-//W3C//DTD SVG 20010904//EN"
 "http://www.w3.org/TR/2001/REC-SVG-20010904/DTD/svg10.dtd">
<svg version="1.0" xmlns="http://www.w3.org/2000/svg"
 width="512.000000pt" height="512.000000pt" viewBox="0 0 512.000000 512.000000"
 preserveAspectRatio="xMidYMid meet">
<metadata>
Created by potrace 1.11, written by Peter Selinger 2001-2013
</metadata>
<g transform="translate(0.000000,512.000000) scale(0.100000,-0.100000)"
fill="#000000" stroke="none">
<path d="M2415 5108 c-270 -48 -508 -230 -624 -479 -80 -170 -87 -232 -84
-739 1 -365 2 -378 27 -472 38 -150 102 -265 206 -368 77 -78 189 -161 191
-142 0 4 2 329 3 722 3 776 1 754 59 852 163 277 571 277 734 0 57 -97 56 -78
59 -837 1 -385 3 -710 3 -722 1 -22 3 -21 54 14 125 89 240 234 302 382 66
156 68 172 67 631 0 389 -1 421 -21 504 -78 326 -322 568 -651 648 -58 14
-260 18 -325 6z"/>
<path d="M2505 3620 c-80 -18 -136 -75 -152 -155 -5 -22 -8 -439 -7 -927 l0
-886 25 -49 c37 -72 99 -106 189 -106 92 0 152 34 188 108 l25 49 0 906 c-1
945 0 929 -44 992 -39 54 -144 86 -224 68z"/>
<path d="M2084 2188 c-177 -118 -313 -318 -361 -533 -22 -100 -25 -846 -4
-950 49 -235 175 -428 366 -558 66 -46 208 -110 270 -122 67 -14 77 -15 180
-20 321 -14 630 178 788 490 31 62 58 131 56 145 0 3 4 17 10 32 20 54 24 128
23 518 0 330 -3 408 -17 474 -34 160 -95 281 -198 392 -64 69 -175 154 -201
154 -8 0 -11 -182 -10 -692 0 -381 -3 -713 -8 -738 -20 -113 -119 -245 -227
-304 -69 -37 -176 -55 -255 -43 -170 26 -324 173 -354 338 -5 25 -8 361 -8
747 1 386 1 702 0 702 0 0 -23 -15 -50 -32z"/>
</g>
</svg>
