<?xml version="1.0" standalone="no"?>
<!DOCTYPE svg PUBLIC "-//W3C//DTD SVG 20010904//EN"
 "http://www.w3.org/TR/2001/REC-SVG-20010904/DTD/svg10.dtd">
<svg version="1.0" xmlns="http://www.w3.org/2000/svg"
 width="100.000000pt" height="100.000000pt" viewBox="0 0 100.000000 100.000000"
 preserveAspectRatio="xMidYMid meet">
<metadata>
Created by potrace 1.11, written by Peter Selinger 2001-2013
</metadata>
<g transform="translate(0.000000,100.000000) scale(0.100000,-0.100000)"
fill="#000000" stroke="none">
<path d="M353 934 c-117 -41 -210 -121 -263 -228 -35 -69 -37 -86 -11 -86 12
0 24 14 35 43 9 23 25 53 36 65 l20 24 59 -23 c58 -23 58 -23 50 -53 -13 -46
-11 -56 11 -56 15 0 21 9 26 39 7 43 1 41 94 26 14 -2 35 -4 48 -4 18 -1 22
-7 22 -31 0 -23 4 -30 20 -30 16 0 20 7 20 30 0 26 4 30 28 31 15 0 36 2 47 4
72 14 79 12 89 -27 7 -27 15 -38 28 -38 16 0 19 7 16 46 -3 45 -2 46 37 61 70
26 75 24 109 -44 20 -41 37 -63 49 -63 24 0 21 18 -13 87 -35 71 -120 159
-187 195 -112 61 -253 73 -370 32z m127 -115 l0 -101 -62 7 c-35 4 -67 11 -72
15 -11 11 30 96 63 130 21 22 58 48 69 50 1 0 2 -45 2 -101z m131 24 c35 -50
52 -94 42 -104 -4 -4 -36 -10 -70 -14 l-63 -7 0 102 0 101 31 -18 c17 -10 44
-37 60 -60z m-270 1 c-17 -26 -31 -53 -31 -58 0 -6 -4 -17 -9 -25 -8 -13 -16
-12 -53 4 -24 10 -45 20 -48 22 -8 7 65 63 114 88 27 14 51 23 53 21 2 -2 -10
-25 -26 -52z m361 22 c46 -26 98 -67 98 -76 0 -4 -21 -15 -46 -25 -47 -18 -63
-12 -64 21 0 7 -15 34 -33 62 -30 44 -32 49 -13 44 12 -3 37 -15 58 -26z"/>
<path d="M62 568 c3 -7 15 -43 27 -80 19 -58 26 -68 46 -68 19 0 26 9 40 50 9
27 20 52 24 54 4 3 15 -19 25 -49 14 -47 21 -55 41 -55 21 0 27 9 49 78 13 42
20 79 15 80 -22 8 -39 -10 -50 -52 -6 -25 -15 -44 -19 -41 -4 3 -13 25 -19 50
-10 40 -14 45 -39 45 -25 0 -30 -6 -47 -52 l-19 -53 -16 53 c-12 44 -18 52
-38 52 -15 0 -22 -5 -20 -12z"/>
<path d="M362 568 c3 -7 15 -43 27 -80 19 -58 26 -68 45 -68 18 0 27 10 40 43
9 23 16 48 16 55 0 26 19 0 35 -48 14 -41 21 -50 40 -50 24 0 24 1 71 148 2 9
-3 12 -18 10 -16 -2 -26 -16 -39 -53 -10 -30 -19 -44 -22 -35 -3 8 -11 32 -17
53 -10 31 -16 37 -38 37 -24 0 -30 -7 -47 -52 l-19 -53 -15 53 c-13 44 -19 52
-39 52 -15 0 -22 -5 -20 -12z"/>
<path d="M662 568 c3 -7 15 -43 27 -80 20 -59 26 -68 46 -68 20 0 27 9 41 55
10 30 21 55 24 55 3 0 14 -25 24 -55 14 -46 21 -55 41 -55 20 0 26 9 46 68 12
37 24 73 27 80 3 10 -2 13 -18 10 -18 -2 -27 -15 -40 -53 l-17 -50 -17 53
c-15 45 -21 52 -44 52 -24 0 -30 -7 -47 -52 l-19 -53 -15 53 c-13 44 -19 52
-39 52 -15 0 -22 -5 -20 -12z"/>
<path d="M60 369 c0 -33 66 -142 117 -192 150 -151 381 -179 564 -68 61 37
139 123 169 187 35 72 37 84 11 84 -12 0 -24 -14 -35 -42 -9 -24 -25 -54 -35
-67 l-18 -24 -57 23 -57 24 7 43 c6 39 4 43 -14 43 -15 0 -22 -9 -29 -36 -9
-41 -3 -39 -93 -30 -69 7 -70 8 -70 37 0 22 -5 29 -20 29 -15 0 -20 -7 -20
-29 0 -27 -2 -29 -62 -36 -35 -5 -70 -9 -78 -9 -9 -1 -18 14 -23 37 -6 26 -14
37 -28 37 -15 0 -18 -7 -16 -46 2 -45 1 -46 -38 -61 -70 -26 -75 -24 -109 44
-20 41 -37 63 -48 63 -10 0 -18 -5 -18 -11z m420 -189 l0 -101 -22 12 c-51 26
-132 149 -112 169 9 8 29 12 102 18 l32 3 0 -101z m173 80 c19 -17 -55 -136
-102 -163 l-31 -18 0 101 0 101 63 -7 c34 -3 66 -9 70 -14z m-343 -44 c6 -19
24 -52 40 -74 l29 -40 -30 8 c-34 10 -141 80 -146 96 -3 10 57 41 84 43 6 1
17 -14 23 -33z m447 18 c24 -9 43 -20 43 -25 0 -11 -93 -77 -134 -94 -41 -17
-44 -14 -18 23 11 15 27 46 37 70 11 23 21 42 24 42 3 0 25 -7 48 -16z"/>
</g>
</svg>
