<?xml version="1.0" standalone="no"?>
<!DOCTYPE svg PUBLIC "-//W3C//DTD SVG 20010904//EN"
 "http://www.w3.org/TR/2001/REC-SVG-20010904/DTD/svg10.dtd">
<svg version="1.0" xmlns="http://www.w3.org/2000/svg"
 width="512.000000pt" height="512.000000pt" viewBox="0 0 512.000000 512.000000"
 preserveAspectRatio="xMidYMid meet">
<metadata>
Created by potrace 1.11, written by Peter Selinger 2001-2013
</metadata>
<g transform="translate(0.000000,512.000000) scale(0.100000,-0.100000)"
fill="#000000" stroke="none">
<path d="M1421 4688 c-186 -27 -361 -202 -388 -388 -5 -30 -8 -824 -8 -1765 1
-1572 3 -1714 18 -1765 54 -177 200 -307 377 -338 19 -3 537 -6 1150 -6 919 0
1124 2 1165 13 168 47 290 166 343 335 14 46 16 236 16 1770 1 1292 -2 1734
-11 1777 -24 121 -116 246 -226 309 -117 67 -46 63 -1272 64 -611 1 -1135 -2
-1164 -6z m2305 -294 c71 -43 94 -90 98 -202 3 -63 1 -92 -7 -94 -7 -2 -577
-4 -1267 -4 l-1255 1 2 93 c1 84 4 99 30 140 31 51 77 83 132 91 19 4 526 6
1126 6 l1092 0 49 -31z m99 -1804 l0 -1235 -1263 -3 c-1006 -2 -1262 0 -1263
10 -6 56 -4 2445 2 2453 5 7 436 10 1266 10 l1258 0 0 -1235z m-1 -1628 c-2
-155 -23 -200 -114 -248 -33 -17 -91 -18 -1125 -19 -600 -1 -1108 3 -1130 8
-58 12 -111 51 -136 99 -18 35 -22 62 -24 153 -1 60 0 113 2 118 2 4 572 7
1267 7 l1262 0 -2 -118z"/>
<path d="M2398 3500 c-229 -39 -458 -180 -596 -368 -133 -180 -193 -359 -193
-572 -1 -350 185 -662 499 -837 69 -39 210 -90 271 -99 20 -3 42 -7 50 -10 20
-6 228 -6 266 1 78 14 193 48 250 74 281 128 489 388 550 691 24 115 16 322
-15 430 -102 348 -385 613 -732 684 -81 17 -266 20 -350 6z m194 -373 c83
-131 133 -261 155 -397 l5 -35 -192 0 -192 0 6 47 c9 69 43 171 84 258 36 76
93 170 102 169 3 0 17 -19 32 -42z m-391 -38 c-37 -83 -77 -208 -90 -289 -20
-117 -7 -105 -120 -105 l-100 -1 6 26 c26 112 79 211 165 305 49 53 157 139
166 131 1 -2 -11 -32 -27 -67z m734 43 c55 -34 143 -122 190 -190 42 -62 111
-229 99 -241 -2 -3 -47 -6 -100 -6 -107 -2 -94 -13 -115 105 -13 80 -51 200
-89 285 -16 36 -26 65 -22 65 4 0 21 -8 37 -18z m-840 -727 c3 -11 10 -49 16
-85 13 -81 53 -206 90 -289 16 -35 29 -66 29 -68 0 -2 -27 14 -59 37 -126 89
-216 211 -260 354 -11 37 -21 69 -21 70 0 1 45 1 100 1 93 0 101 -1 105 -20z
m650 -10 c2 -99 -91 -326 -174 -428 -14 -17 -17 -14 -49 35 -36 56 -85 157
-109 223 -14 40 -43 166 -43 188 0 9 48 12 188 12 l187 0 0 -30z m477 5 c-11
-92 -104 -254 -193 -335 -56 -52 -144 -113 -136 -94 64 145 116 312 131 419 2
19 5 35 5 35 1 1 45 0 99 0 l97 -1 -3 -24z"/>
<path d="M2330 1009 c-103 -42 -110 -188 -11 -235 28 -13 71 -16 243 -17 231
0 258 6 293 66 23 38 21 104 -3 136 -39 54 -66 60 -291 60 -116 0 -217 -4
-231 -10z"/>
</g>
</svg>
